<svg width="112" height="115" viewBox="0 0 112 115" fill="none" xmlns="http://www.w3.org/2000/svg">
<path d="M19.6876 5.07145C19.6723 24.0353 19.6575 42.9997 19.6434 61.9647C19.6434 62.0249 19.6156 62.0432 19.5602 62.0196C19.1566 61.8438 18.7537 61.6638 18.3513 61.4798C11.408 58.3099 3.26121 61.8143 0.74796 69.0124C-2.19184 77.4389 3.88244 86.3415 12.877 86.4919C19.0947 86.5946 24.53 82.2884 25.9017 76.223C26.0728 75.4702 26.1678 74.4867 26.1867 73.2726C26.3008 65.958 26.284 58.6292 26.2673 51.3075C26.2635 49.6595 26.2597 48.0119 26.2574 46.3649C26.2563 44.9678 26.251 43.5643 26.2415 42.1543C26.2403 42.074 26.2716 42.0581 26.3353 42.1065C28.5829 43.8329 30.9121 45.1876 33.5903 46.7454C34.6134 47.3405 35.6874 47.9652 36.8273 48.6516C41.8785 51.6922 45.6289 55.6285 46.0325 61.8302C46.0463 62.0451 46.0559 62.2586 46.0653 62.47C46.1292 63.9053 46.1887 65.2401 47.5741 66.2213C49.9263 67.885 52.6961 65.9541 52.7014 63.255C52.7156 56.9022 52.7168 50.5495 52.705 44.1967C52.6908 36.6871 50.4767 30.5916 44.5475 25.7792C42.147 23.8308 39.6744 22.285 36.8891 20.5436C36.2942 20.1717 35.6849 19.7908 35.0591 19.3952C30.0362 16.22 26.5866 12.1086 26.2928 5.90862C26.2844 5.72536 26.2793 5.53664 26.2741 5.34534C26.2511 4.49272 26.2266 3.58882 25.8999 2.88917C24.4911 -0.139116 19.8664 0.637869 19.7106 4.04669C19.6953 4.38769 19.6876 4.72927 19.6876 5.07145Z" fill="url(#paint0_linear_68_147)"/>
<path d="M105.404 54.8659C105.405 54.8711 105.405 54.8764 105.405 54.8817V75.3364C105.405 75.4036 105.375 75.4213 105.315 75.3895C101.452 73.2809 97.5889 73.0467 93.7258 74.6868C84.179 78.7416 82.9985 91.715 91.4745 97.5432C96.5577 101.037 103.382 100.487 107.85 96.2636C110.617 93.6477 112 90.315 112 86.2655C112 68.091 111.999 49.9165 111.996 31.7421C111.996 30.758 111.932 30.0707 111.802 29.6802C111.262 28.0536 109.474 27.0873 107.805 27.5616C92.6574 31.866 77.5083 36.1662 62.358 40.4624C60.1987 41.0747 59.2536 42.2234 59.2554 44.542C59.2565 59.1731 59.256 73.8066 59.2536 88.4424C59.2536 88.525 59.217 88.5474 59.1439 88.5097C58.3315 88.0991 57.4695 87.6725 56.6819 87.4123C49.3086 84.9858 41.5228 89.5645 39.875 97.1238C38.6963 102.525 41.1033 107.982 45.6856 110.936C51.7262 114.826 59.9757 112.966 63.7881 106.823C65.1568 104.618 65.8417 102.101 65.8429 99.2724C65.8476 88.22 65.8494 77.1635 65.8482 66.1028C65.8482 66.0379 65.8795 65.9966 65.942 65.9789L105.301 54.802C105.313 54.7985 105.326 54.7979 105.338 54.8002C105.345 54.8014 105.351 54.8035 105.357 54.8063C105.363 54.8088 105.368 54.8118 105.372 54.8154C105.379 54.8201 105.384 54.8256 105.389 54.8318C105.392 54.8358 105.394 54.8401 105.396 54.8447C105.4 54.8514 105.402 54.8585 105.404 54.8659Z" fill="url(#paint1_linear_68_147)"/>
<defs>
<linearGradient id="paint0_linear_68_147" x1="24.4611" y1="153.939" x2="200.764" y2="16.2801" gradientUnits="userSpaceOnUse">
<stop offset="0.0396862" stop-color="#9E00FF"/>
<stop offset="1" stop-color="#007AFF"/>
</linearGradient>
<linearGradient id="paint1_linear_68_147" x1="24.4611" y1="153.939" x2="200.764" y2="16.2801" gradientUnits="userSpaceOnUse">
<stop offset="0.0396862" stop-color="#9E00FF"/>
<stop offset="1" stop-color="#007AFF"/>
</linearGradient>
</defs>
</svg>
