<svg width="1398" height="687" viewBox="0 0 1398 687" fill="none" xmlns="http://www.w3.org/2000/svg">
<g filter="url(#filter0_d_68_30)">
<g style="mix-blend-mode:overlay">
<path d="M1389.25 548.072L1380.37 546.536C1374.58 545.576 1370.14 541.16 1369.37 535.592L1367.82 526.76C1366.86 520.616 1357.98 520.616 1357.01 526.76L1355.47 535.592C1354.5 541.352 1350.06 545.768 1344.47 546.536L1335.59 548.072C1329.41 549.032 1329.41 557.864 1335.59 558.824L1344.47 560.36C1350.26 561.32 1354.7 565.736 1355.47 571.304L1357.01 580.136C1357.98 586.28 1366.86 586.28 1367.82 580.136L1369.37 571.304C1370.33 565.544 1374.77 561.128 1380.37 560.36L1389.25 558.824C1395.42 557.864 1395.42 549.032 1389.25 548.072Z" fill="white" fill-opacity="0.7"/>
<path d="M799.252 449.423L794.985 448.687C792.202 448.227 790.068 446.11 789.697 443.442L788.955 439.209C788.491 436.264 784.224 436.264 783.76 439.209L783.018 443.442C782.555 446.202 780.421 448.319 777.731 448.687L773.556 449.423C770.588 449.883 770.588 454.117 773.556 454.577L777.824 455.313C780.606 455.773 782.74 457.89 783.111 460.558L783.853 464.791C784.317 467.736 788.584 467.736 789.048 464.791L789.79 460.558C790.254 457.798 792.387 455.681 795.078 455.313L799.345 454.577C802.22 454.117 802.22 449.883 799.252 449.423Z" fill="white" fill-opacity="0.8"/>
<path d="M197.856 504.608L188.977 503.072C183.186 502.112 178.747 497.696 177.975 492.128L176.43 483.296C175.465 477.152 166.586 477.152 165.621 483.296L164.077 492.128C163.112 497.888 158.672 502.304 153.075 503.072L144.195 504.608C138.019 505.568 138.019 514.4 144.195 515.36L153.075 516.896C158.865 517.856 163.305 522.272 164.077 527.84L165.621 536.672C166.586 542.816 175.465 542.816 176.43 536.672L177.975 527.84C178.94 522.08 183.379 517.664 188.977 516.896L197.856 515.36C204.033 514.208 204.033 505.568 197.856 504.608Z" fill="white" fill-opacity="0.3"/>
<path d="M473.124 355.792L467.72 354.832C464.245 354.256 461.543 351.568 460.964 348.112L459.999 342.736C459.42 339.088 454.015 339.088 453.436 342.736L452.471 348.112C451.892 351.568 449.189 354.256 445.715 354.832L440.31 355.792C436.643 356.368 436.643 361.744 440.31 362.32L445.715 363.28C449.189 363.856 451.892 366.544 452.471 370L453.436 375.376C454.015 379.024 459.42 379.024 459.999 375.376L460.964 370C461.543 366.544 464.245 363.856 467.72 363.28L473.124 362.32C476.792 361.744 476.792 356.56 473.124 355.792Z" fill="white" fill-opacity="0.25"/>
<path d="M1195.88 492.04L1190.47 491.08C1187 490.504 1184.3 487.816 1183.72 484.36L1182.75 478.984C1182.17 475.336 1176.77 475.336 1176.19 478.984L1175.22 484.36C1174.65 487.816 1171.94 490.504 1168.47 491.08L1163.06 492.04C1159.4 492.616 1159.4 497.992 1163.06 498.568L1168.47 499.528C1171.94 500.104 1174.65 502.792 1175.22 506.248L1176.19 511.624C1176.77 515.272 1182.17 515.272 1182.75 511.624L1183.72 506.248C1184.3 502.792 1187 500.104 1190.47 499.528L1195.88 498.568C1199.55 497.992 1199.55 492.808 1195.88 492.04Z" fill="white" fill-opacity="0.35"/>
<path d="M617.836 655.888L612.432 654.928C608.957 654.352 606.255 651.664 605.676 648.208L604.711 642.832C604.132 639.184 598.727 639.184 598.148 642.832L597.183 648.208C596.604 651.664 593.901 654.352 590.427 654.928L585.022 655.888C581.355 656.464 581.355 661.84 585.022 662.416L590.427 663.376C593.901 663.952 596.604 666.64 597.183 670.096L598.148 675.472C598.727 679.12 604.132 679.12 604.711 675.472L605.676 670.096C606.255 666.64 608.957 663.952 612.432 663.376L617.836 662.416C621.504 661.648 621.504 656.464 617.836 655.888Z" fill="white" fill-opacity="0.15"/>
<path d="M949.596 583.888L944.191 582.928C940.717 582.352 938.015 579.664 937.436 576.208L936.471 570.832C935.891 567.184 930.487 567.184 929.908 570.832L928.943 576.208C928.363 579.664 925.661 582.352 922.187 582.928L916.782 583.888C913.115 584.464 913.115 589.84 916.782 590.416L922.187 591.376C925.661 591.952 928.363 594.64 928.943 598.096L929.908 603.472C930.487 607.12 935.891 607.12 936.471 603.472L937.436 598.096C938.015 594.64 940.717 591.952 944.191 591.376L949.596 590.416C953.264 589.648 953.264 584.464 949.596 583.888Z" fill="white" fill-opacity="0.15"/>
<path d="M317.241 578.888L311.837 577.928C308.362 577.352 305.66 574.664 305.081 571.208L304.116 565.832C303.537 562.184 298.132 562.184 297.553 565.832L296.588 571.208C296.009 574.664 293.306 577.352 289.832 577.928L284.427 578.888C280.76 579.464 280.76 584.84 284.427 585.416L289.832 586.376C293.306 586.952 296.009 589.64 296.588 593.096L297.553 598.472C298.132 602.12 303.537 602.12 304.116 598.472L305.081 593.096C305.66 589.64 308.362 586.952 311.837 586.376L317.241 585.416C320.909 584.648 320.909 579.464 317.241 578.888Z" fill="white" fill-opacity="0.15"/>
</g>
<g style="mix-blend-mode:overlay">
<path d="M0.160794 153.072L9.03985 151.536C14.8306 150.576 19.2701 146.16 20.0422 140.592L21.5864 131.76C22.5515 125.616 31.4307 125.616 32.3958 131.76L33.94 140.592C34.9051 146.352 39.3447 150.768 44.9424 151.536L53.8214 153.072C59.9982 154.032 59.9982 162.864 53.8214 163.824L44.9424 165.36C39.1516 166.32 34.7121 170.736 33.94 176.304L32.3958 185.136C31.4307 191.28 22.5515 191.28 21.5864 185.136L20.0422 176.304C19.0771 170.544 14.6375 166.128 9.03985 165.36L0.160794 163.824C-6.01597 162.864 -6.01597 154.032 0.160794 153.072Z" fill="white" fill-opacity="0.7"/>
<path d="M601.216 12.4233L605.483 11.6871C608.266 11.227 610.399 9.11043 610.77 6.44172L611.512 2.20859C611.976 -0.736196 616.243 -0.736196 616.707 2.20859L617.449 6.44172C617.913 9.20245 620.047 11.319 622.737 11.6871L626.911 12.4233C629.88 12.8834 629.88 17.1166 626.911 17.5767L622.644 18.3129C619.861 18.773 617.728 20.8896 617.356 23.5583L616.614 27.7914C616.151 30.7362 611.883 30.7362 611.42 27.7914L610.677 23.5583C610.214 20.7975 608.08 18.681 605.39 18.3129L601.123 17.5767C598.247 17.1166 598.247 12.8834 601.216 12.4233Z" fill="white" fill-opacity="0.8"/>
<path d="M1267.96 45.608L1276.84 44.072C1282.63 43.112 1287.07 38.696 1287.84 33.128L1289.38 24.296C1290.35 18.152 1299.23 18.152 1300.19 24.296L1301.74 33.128C1302.7 38.888 1307.14 43.304 1312.74 44.072L1321.62 45.608C1327.8 46.568 1327.8 55.4 1321.62 56.36L1312.74 57.896C1306.95 58.856 1302.51 63.272 1301.74 68.84L1300.19 77.672C1299.23 83.816 1290.35 83.816 1289.38 77.672L1287.84 68.84C1286.87 63.08 1282.43 58.664 1276.84 57.896L1267.96 56.36C1261.78 55.208 1261.78 46.568 1267.96 45.608Z" fill="white" fill-opacity="0.3"/>
<path d="M876.071 17.792L881.476 16.832C884.95 16.256 887.653 13.568 888.232 10.112L889.197 4.736C889.776 1.088 895.181 1.088 895.76 4.736L896.725 10.112C897.304 13.568 900.006 16.256 903.481 16.832L908.885 17.792C912.553 18.368 912.553 23.744 908.885 24.32L903.481 25.28C900.006 25.856 897.304 28.544 896.725 32L895.76 37.376C895.181 41.024 889.776 41.024 889.197 37.376L888.232 32C887.653 28.544 884.95 25.856 881.476 25.28L876.071 24.32C872.404 23.744 872.404 18.56 876.071 17.792Z" fill="white" fill-opacity="0.25"/>
<path d="M192.526 82.04L197.93 81.08C201.405 80.504 204.107 77.816 204.686 74.36L205.651 68.984C206.23 65.336 211.635 65.336 212.214 68.984L213.179 74.36C213.758 77.816 216.461 80.504 219.935 81.08L225.34 82.04C229.007 82.616 229.007 87.992 225.34 88.568L219.935 89.528C216.461 90.104 213.758 92.792 213.179 96.248L212.214 101.624C211.635 105.272 206.23 105.272 205.651 101.624L204.686 96.248C204.107 92.792 201.405 90.104 197.93 89.528L192.526 88.568C188.858 87.992 188.858 82.808 192.526 82.04Z" fill="white" fill-opacity="0.35"/>
<path d="M697.178 177.888L702.583 176.928C706.057 176.352 708.759 173.664 709.339 170.208L710.304 164.832C710.883 161.184 716.287 161.184 716.866 164.832L717.832 170.208C718.411 173.664 721.113 176.352 724.587 176.928L729.992 177.888C733.66 178.464 733.66 183.84 729.992 184.416L724.587 185.376C721.113 185.952 718.411 188.64 717.832 192.096L716.866 197.472C716.287 201.12 710.883 201.12 710.304 197.472L709.339 192.096C708.759 188.64 706.057 185.952 702.583 185.376L697.178 184.416C693.511 183.648 693.511 178.464 697.178 177.888Z" fill="white" fill-opacity="0.15"/>
<path d="M1000.79 264.888L1006.19 263.928C1009.67 263.352 1012.37 260.664 1012.95 257.208L1013.91 251.832C1014.49 248.184 1019.9 248.184 1020.48 251.832L1021.44 257.208C1022.02 260.664 1024.72 263.352 1028.2 263.928L1033.6 264.888C1037.27 265.464 1037.27 270.84 1033.6 271.416L1028.2 272.376C1024.72 272.952 1022.02 275.64 1021.44 279.096L1020.48 284.472C1019.9 288.12 1014.49 288.12 1013.91 284.472L1012.95 279.096C1012.37 275.64 1009.67 272.952 1006.19 272.376L1000.79 271.416C997.121 270.648 997.121 265.464 1000.79 264.888Z" fill="white" fill-opacity="0.15"/>
</g>
</g>
<defs>
<filter id="filter0_d_68_30" x="-8.4718" y="0" width="1406.35" height="686.208" filterUnits="userSpaceOnUse" color-interpolation-filters="sRGB">
<feFlood flood-opacity="0" result="BackgroundImageFix"/>
<feColorMatrix in="SourceAlpha" type="matrix" values="0 0 0 0 0 0 0 0 0 0 0 0 0 0 0 0 0 0 127 0" result="hardAlpha"/>
<feOffset dy="4"/>
<feGaussianBlur stdDeviation="2"/>
<feComposite in2="hardAlpha" operator="out"/>
<feColorMatrix type="matrix" values="0 0 0 0 0 0 0 0 0 0 0 0 0 0 0 0 0 0 0.25 0"/>
<feBlend mode="normal" in2="BackgroundImageFix" result="effect1_dropShadow_68_30"/>
<feBlend mode="normal" in="SourceGraphic" in2="effect1_dropShadow_68_30" result="shape"/>
</filter>
</defs>
</svg>
