<svg width="112" height="95" viewBox="0 0 112 95" fill="none" xmlns="http://www.w3.org/2000/svg">
<path fill-rule="evenodd" clip-rule="evenodd" d="M24.0079 0.038842C35.2782 0.0412697 46.5497 0.0424849 57.8212 0.0364156C58.2829 0.0361694 58.7449 0.0366224 59.207 0.0370756C61.0232 0.0388565 62.8419 0.0406399 64.6584 0C64.6737 0 64.6917 0.00526058 64.7127 0.0157805C64.7412 0.0309162 64.7726 0.0388308 64.8043 0.038842L88.5657 0.0424834L89.8637 0.0412813C89.9055 0.0412813 89.93 0.061916 89.9372 0.103187C90.4648 3.17906 90.8291 6.28812 91.0301 9.43035C97.1339 9.33244 102.806 9.17261 108.047 8.95089C109.624 8.88534 110.842 9.03586 111.644 10.5604C111.878 11.0282 111.997 11.5364 111.999 12.085C112.019 16.6232 111.758 21.1443 111.216 25.6485C110.738 29.6166 109.943 33.7181 108.595 37.4859C105.606 46.2025 100.078 52.7706 91.4125 56.0929C87.0325 57.7716 82.3389 58.6104 77.6947 59.0073C77.5323 59.0211 77.4897 59.0779 77.4177 59.174C77.4009 59.1964 77.3825 59.221 77.3605 59.2477C73.0408 64.5655 67.4401 68.6877 60.7766 70.2196C60.7227 70.2325 60.6965 70.2665 60.6982 70.3215C60.9611 78.1872 62.3701 81.1136 65.9491 88.1284C66.4493 88.1333 66.9871 88.1232 67.5349 88.1129L67.5367 88.1128L67.5378 88.1128C68.9086 88.087 70.3454 88.06 71.4341 88.2619C73.8248 88.7038 75.9406 90.4892 76.662 92.8694C76.8824 93.5581 77.0033 94.2534 77.0242 94.955L35.0055 95L35.0863 93.8275L35.1867 93.3322C35.9623 90.1046 38.7908 88.1734 42.0032 88.126C43.318 88.1058 44.6333 88.1014 45.9489 88.1127C45.9883 88.1135 46.0213 88.0985 46.0478 88.0678L46.0768 88.035C49.2204 81.9525 50.6933 79.9618 51.136 73.1546L51.2976 70.1881L50.5316 70.0593C44.0913 68.4061 38.616 64.2887 34.4989 59.1008C34.474 59.0692 34.4418 59.0494 34.4024 59.0413L34.1744 58.9964C24.8257 58.2183 15.2405 55.5394 9.03051 47.8703C6.57693 44.8405 4.73389 41.4495 3.50107 37.6971C3.31852 37.2682 3.20593 36.9854 3.16331 36.8486C0.686813 28.8579 -0.0719385 20.2554 0.00526353 11.994C0.0125012 11.205 0.279894 10.5062 0.807441 9.89768C1.72382 8.89119 2.70317 8.92411 4.07418 8.97018C4.1235 8.97184 4.17332 8.97351 4.22366 8.97516C4.82035 8.99506 5.41712 9.01519 6.01395 9.03533C10.1854 9.17605 14.3599 9.31687 18.5326 9.38058C19.3143 9.39272 20.0903 9.42469 20.8607 9.47648C20.8655 9.52341 20.8852 9.52017 20.9198 9.46676C20.9286 9.45301 20.9335 9.43642 20.9343 9.417C21.1377 6.30552 21.4956 3.20981 22.0079 0.129889C22.0143 0.089428 22.0384 0.0687934 22.0802 0.0679841L24.0079 0.038842ZM91.1388 17.4332C91.1549 16.7996 91.1774 16.166 91.2064 15.5323L105.993 15.1039L105.884 17.5704C105.188 30.448 102.865 45.5069 88.824 50.5784C86.6913 51.3488 84.5067 51.9193 82.2703 52.2899C82.1882 52.3036 82.1508 52.2944 82.1581 52.262C87.9953 41.6931 90.8385 29.568 91.1388 17.4332ZM6.07421 15.1281C6.08628 15.1192 6.09753 15.114 6.10799 15.1123L20.7728 15.4716C20.8705 27.5554 23.2915 39.5506 28.7584 50.3381C28.8307 50.4813 29.0093 50.807 29.2939 51.3152C29.4709 51.63 29.6405 51.9601 29.803 52.3057C26.0527 51.666 22.5253 50.6294 19.43 48.856C8.70733 42.7127 6.81849 29.2208 6.13573 18.0923L6.04164 15.1937C6.04084 15.1662 6.0517 15.1443 6.07421 15.1281ZM64.0373 36.4905L71.3039 29.3956C71.3578 29.343 71.351 29.2997 71.2834 29.2658C71.281 29.2641 71.2755 29.2609 71.2669 29.2561L71.2315 29.2366C71.213 29.2269 71.1941 29.2204 71.1748 29.2172C67.8294 28.722 64.4848 28.236 61.141 27.7594C61.1279 27.7575 61.1155 27.7525 61.1048 27.7447C61.0941 27.7368 61.0854 27.7265 61.0795 27.7145L56.5294 18.4286C56.5283 18.4264 56.5271 18.4243 56.5257 18.4223C56.5237 18.4193 56.5213 18.4166 56.5187 18.414C56.5161 18.4116 56.5133 18.4094 56.5102 18.4074C56.504 18.4035 56.497 18.401 56.4897 18.4001C56.4875 18.3998 56.4852 18.3996 56.4829 18.3996C56.4733 18.3996 56.4638 18.4023 56.4556 18.4074C56.4474 18.4126 56.4408 18.4199 56.4365 18.4286L51.9009 27.6477C51.8848 27.6801 51.859 27.6995 51.8237 27.706C50.3745 27.9843 48.9197 28.2198 47.4593 28.4124C46.0898 28.5937 44.8296 28.7814 43.5695 28.9692C42.9394 29.063 42.3093 29.1569 41.6656 29.25C41.6543 29.2518 41.6437 29.2568 41.635 29.2643C41.6263 29.2717 41.6198 29.2814 41.6163 29.2923C41.6128 29.3031 41.6124 29.3147 41.6151 29.3257C41.6179 29.3366 41.6236 29.3466 41.6318 29.3544L48.937 36.5257C48.9616 36.5497 48.98 36.5792 48.9907 36.6117C49.0014 36.6443 49.0041 36.6789 48.9985 36.7127L47.282 46.7985C47.2799 46.8115 47.2814 46.8249 47.2864 46.8372C47.2914 46.8494 47.2997 46.86 47.3103 46.8678C47.3209 46.8756 47.3335 46.8803 47.3466 46.8813C47.3545 46.882 47.3624 46.8812 47.37 46.8793C47.375 46.878 47.3799 46.8761 47.3845 46.8738L56.3906 42.1058C56.4152 42.093 56.4424 42.0864 56.4699 42.0864C56.4974 42.0864 56.5244 42.093 56.5487 42.1058L65.5415 46.8592C65.5538 46.8657 65.5677 46.8688 65.5816 46.8681C65.5956 46.8674 65.609 46.863 65.6207 46.8554C65.6324 46.8477 65.6418 46.837 65.648 46.8245C65.6543 46.8119 65.657 46.7979 65.6561 46.7839C65.6456 46.6383 65.6267 46.4857 65.5994 46.3263C65.0743 43.2326 64.5423 40.1406 64.0035 37.0501C63.9891 36.968 63.9913 36.8682 63.9935 36.7704C63.9948 36.7122 63.9961 36.6548 63.9938 36.6022C63.9914 36.5577 64.0059 36.5205 64.0373 36.4905Z" fill="url(#paint0_linear_68_128)"/>
<defs>
<linearGradient id="paint0_linear_68_128" x1="24.4611" y1="129.759" x2="178.115" y2="-11.647" gradientUnits="userSpaceOnUse">
<stop offset="0.0396862" stop-color="#9E00FF"/>
<stop offset="1" stop-color="#007AFF"/>
</linearGradient>
</defs>
</svg>
