<svg width="130" height="100" viewBox="0 0 130 100" fill="none" xmlns="http://www.w3.org/2000/svg">
<path d="M39.3863 8.1352L39.2292 8.07856C39.2022 8.06814 39.1781 8.0727 39.157 8.09223C39.0714 8.16906 38.994 8.15929 38.9249 8.06293C38.7233 7.78168 38.4832 7.67327 38.2323 7.34123C38.1345 7.21232 37.9645 7.08244 37.8203 6.9086C37.4106 6.4164 36.8389 5.86593 36.1051 5.25719C35.5667 4.81186 36.5379 3.96027 36.9222 3.65655C37.2206 3.42021 37.4162 3.20439 37.7373 3.47002C38.2659 3.90753 38.7757 4.62631 39.408 4.99546C39.4147 4.9994 39.4223 5.00153 39.4301 5.00163C39.4379 5.00174 39.4456 4.99981 39.4524 4.99605C39.4592 4.99229 39.4649 4.98683 39.4689 4.98021C39.4729 4.97359 39.4751 4.96605 39.4752 4.95835C39.4831 4.3138 39.3902 3.66046 39.4475 3.02274C39.5009 2.43483 39.488 1.78996 39.409 1.08811C39.405 1.0536 39.4182 1.02691 39.4485 1.00803C39.658 0.877167 39.902 0.735561 39.9257 0.473834C39.9422 0.298047 39.8763 0.193227 39.7281 0.159372L40.7912 0.00116329C40.8294 -0.00469626 40.8498 0.0115803 40.8524 0.0499929C41.0145 2.75222 40.5847 5.67126 39.3863 8.1352Z" fill="url(#paint0_linear_68_124)"/>
<path d="M101.087 15.1022C95.6554 14.4499 91.0464 10.939 89.7255 5.56189C89.3244 3.92968 89.1413 2.23757 89.1762 0.485564C89.1795 0.334517 89.1926 0.210165 89.2157 0.112505C89.2236 0.0786502 89.244 0.0555376 89.277 0.0431674C89.6633 -0.106251 91.7163 0.485564 92.2113 0.626193C95.3432 1.51099 98.24 3.53839 99.7991 6.38321C101.23 8.99559 101.675 11.6607 101.618 14.6471C101.61 15.0612 101.897 15.2516 102.19 15.5251C102.452 15.7692 102.964 16.4027 103.724 17.4255C104.079 17.9021 104.642 18.6993 105.413 19.8172C108.641 24.497 110.993 29.8517 112.363 35.3011C115.402 47.3874 113.587 60.3614 107.228 71.228C105.914 73.4728 104.565 75.4566 103.183 77.1793C102.794 77.6637 102.047 78.5244 100.942 79.7614C96.1692 85.1044 89.8935 89.334 83.267 92.0685C83.0885 92.1427 82.9709 92.0945 82.9143 91.9239C82.7806 91.519 82.6696 91.1098 82.5813 90.6964C82.555 90.5733 82.6044 90.4854 82.7295 90.4327C92.3872 86.3964 100.147 79.5964 105.511 70.7573C106.641 68.8959 107.573 66.9222 108.478 64.884C108.91 63.9114 109.276 62.9982 109.574 62.1447C112.184 54.6747 113.004 46.5583 111.878 38.811C110.707 30.7443 107.508 23.0175 102.621 16.3913C102.251 15.8903 101.729 15.1794 101.087 15.1022Z" fill="url(#paint1_linear_68_124)"/>
<path d="M39.7281 0.159372C39.8763 0.193227 39.9422 0.298047 39.9257 0.473834C39.902 0.735561 39.658 0.877167 39.4485 1.00803C39.4182 1.02691 39.405 1.0536 39.409 1.08811C39.488 1.78996 39.5009 2.43483 39.4475 3.02274C39.3902 3.66046 39.4831 4.3138 39.4752 4.95835C39.4751 4.96605 39.4729 4.97359 39.4689 4.98021C39.4649 4.98683 39.4592 4.99229 39.4524 4.99605C39.4456 4.99981 39.4379 5.00174 39.4301 5.00163C39.4223 5.00153 39.4147 4.9994 39.408 4.99546C38.7757 4.62631 38.2659 3.90753 37.7373 3.47002C37.4162 3.20439 37.2206 3.42021 36.9222 3.65655C36.5379 3.96027 35.5667 4.81186 36.1051 5.25719C36.8389 5.86593 37.4106 6.4164 37.8203 6.9086C37.9645 7.08244 38.1345 7.21232 38.2323 7.34123C38.4832 7.67327 38.7233 7.78168 38.9249 8.06293C38.994 8.15929 39.0714 8.16906 39.157 8.09223C39.1781 8.0727 39.2022 8.06814 39.2292 8.07856L39.3863 8.1352C38.8587 9.15086 38.2157 10.0822 37.4576 10.9293C36.5862 11.9039 35.4599 12.6764 34.3227 13.3649C34.2272 13.3636 34.1518 13.3388 34.0965 13.2907C34.0708 13.2685 34.0612 13.2408 34.0678 13.2076C34.0896 13.0957 34.1452 13.012 34.2348 12.9567C34.4726 12.8095 34.6662 12.6383 34.8157 12.443C34.8375 12.415 34.8421 12.3847 34.8296 12.3521C34.7713 12.192 34.7584 12.0894 34.8394 11.9244C35.2188 11.1558 35.2455 10.145 34.5905 9.49073C34.051 8.95263 33.5225 8.46433 32.7034 8.65867C31.3795 8.97118 30.0309 10.3179 29.3027 11.4039C29.1295 11.6623 28.8825 11.7304 28.5617 11.608C28.8166 9.83742 29.3334 8.02584 30.2196 6.47404C32.243 2.93193 35.7208 0.896699 39.7281 0.159372ZM37.7451 8.0317C37.013 7.34906 36.3165 6.6381 35.5923 5.9496C35.4856 5.84804 35.4016 5.66542 35.2524 5.55799C35.2248 5.53781 35.1964 5.53683 35.1675 5.55506C34.8306 5.76601 33.1579 7.09905 33.645 7.54438C34.6754 8.48777 35.7069 9.30908 36.5536 10.438C36.574 10.4654 36.5991 10.4706 36.6287 10.4537C36.8362 10.3339 37.0595 10.2495 37.2986 10.2007C37.7758 10.1031 37.8983 9.53077 38.2302 9.25049C38.2519 9.23222 38.2666 9.20704 38.2717 9.1792C38.2954 9.03466 38.3755 8.93635 38.5118 8.88427C38.5448 8.8719 38.5632 8.84878 38.5671 8.81493L38.5928 8.5991C38.5962 8.56946 38.5895 8.53955 38.5737 8.51412C38.5579 8.4887 38.534 8.46922 38.5057 8.45879C38.4774 8.44835 38.4464 8.44755 38.4176 8.45652C38.3889 8.46548 38.3639 8.4837 38.3468 8.50828C38.2994 8.57664 38.2391 8.59324 38.166 8.55808C38.1278 8.53986 38.0913 8.50079 38.0564 8.44089C37.9562 8.26901 37.8525 8.13262 37.7451 8.0317Z" fill="url(#paint2_linear_68_124)"/>
<path d="M108.052 20.0096C105.141 17.365 103.201 13.7125 103.331 9.71435C103.429 6.72989 104.619 4.03937 106.193 1.53734C106.315 1.34463 106.43 1.19033 106.541 1.07444C106.566 1.04839 106.592 1.04709 106.619 1.07053C107.361 1.71183 107.99 2.29974 108.506 2.83426C111.747 6.18983 113.093 10.7779 111.801 15.2741C111.238 17.2325 110.34 19.0926 109.108 20.8543C109.102 20.8626 109.095 20.8696 109.086 20.8747C109.077 20.8799 109.067 20.8831 109.057 20.8842C109.047 20.8853 109.037 20.8843 109.027 20.8812C109.018 20.878 109.009 20.8729 109.001 20.8661C108.695 20.592 108.378 20.3065 108.052 20.0096Z" fill="url(#paint3_linear_68_124)"/>
<path d="M26.641 8.65084C27.2022 12.689 25.4011 16.5085 22.6535 19.3875C22.1862 19.8758 21.5874 20.3172 21.0421 20.7772C21.0203 20.7954 21.0019 20.7928 20.9867 20.7694C20.7832 20.452 20.5007 20.1434 20.3218 19.8592C19.2383 18.1378 18.4957 16.3656 18.0939 14.5426C16.8945 9.09812 19.241 4.68001 23.3115 1.20627C23.4439 1.09364 23.5575 1.10308 23.6523 1.23459C25.2694 3.47685 26.2656 5.94893 26.641 8.65084Z" fill="url(#paint4_linear_68_124)"/>
<path d="M35.5923 5.9496C36.3165 6.6381 37.013 7.34906 37.7451 8.0317C37.8525 8.13262 37.9562 8.26901 38.0564 8.44089C38.0913 8.50079 38.1278 8.53986 38.166 8.55808C38.2391 8.59324 38.2994 8.57664 38.3468 8.50828C38.3639 8.4837 38.3889 8.46548 38.4176 8.45652C38.4464 8.44755 38.4774 8.44835 38.5057 8.45879C38.534 8.46922 38.5579 8.4887 38.5737 8.51412C38.5895 8.53955 38.5962 8.56946 38.5928 8.5991L38.5671 8.81493C38.5632 8.84878 38.5448 8.8719 38.5118 8.88427C38.3755 8.93635 38.2954 9.03466 38.2717 9.1792C38.2666 9.20704 38.2519 9.23222 38.2302 9.25049C37.8983 9.53077 37.7758 10.1031 37.2986 10.2007C37.0595 10.2495 36.8362 10.3339 36.6287 10.4537C36.5991 10.4706 36.574 10.4654 36.5536 10.438C35.7069 9.30908 34.6754 8.48777 33.645 7.54438C33.1579 7.09905 34.8306 5.76601 35.1675 5.55506C35.1964 5.53683 35.2248 5.53781 35.2524 5.55799C35.4016 5.66542 35.4856 5.84804 35.5923 5.9496Z" fill="url(#paint5_linear_68_124)"/>
<path d="M34.3227 13.3649C32.9385 14.2096 31.2047 14.6803 29.6279 14.9967L28.6162 15.1295C28.6018 15.1314 28.5872 15.1304 28.5732 15.1264C28.5593 15.1224 28.5463 15.1156 28.5352 15.1065C28.524 15.0973 28.5149 15.0859 28.5085 15.0731C28.502 15.0602 28.4983 15.0462 28.4976 15.0319L28.4225 13.6226L28.5617 11.608C28.8825 11.7304 29.1295 11.6623 29.3027 11.4039C30.0309 10.3179 31.3795 8.97118 32.7034 8.65867C33.5225 8.46433 34.051 8.95263 34.5905 9.49073C35.2455 10.145 35.2188 11.1558 34.8394 11.9244C34.7584 12.0894 34.7713 12.192 34.8296 12.3521C34.8421 12.3847 34.8375 12.415 34.8157 12.443C34.6662 12.6383 34.4726 12.8095 34.2348 12.9567C34.1452 13.012 34.0896 13.0957 34.0678 13.2076C34.0612 13.2408 34.0708 13.2685 34.0965 13.2907C34.1518 13.3388 34.2272 13.3636 34.3227 13.3649ZM29.451 13.7525C29.5419 13.9811 29.6536 14.4586 29.8976 14.5787C29.9279 14.5931 29.9588 14.5953 29.9905 14.5856C30.2246 14.5133 30.2246 14.3024 30.355 14.1744C30.4163 14.1145 30.4825 14.0608 30.5536 14.0133C30.5813 13.9957 30.6037 13.9729 30.6208 13.9449C30.7492 13.7369 30.9567 13.7057 31.1059 13.5611C31.2403 13.4303 31.3727 13.2978 31.5031 13.1636C32.0998 12.5494 33.0661 11.9566 33.0206 11.0425C33.0193 11.0145 33.0071 10.9917 32.9841 10.9741C32.6719 10.7397 32.3649 10.7342 32.0633 10.9575C31.0667 11.6958 30.2035 12.5676 29.4737 13.5728C29.4552 13.5987 29.4434 13.6286 29.4394 13.66C29.4355 13.6913 29.4395 13.7231 29.451 13.7525Z" fill="url(#paint6_linear_68_124)"/>
<path d="M29.8976 14.5787C29.6536 14.4586 29.5419 13.9811 29.451 13.7525C29.4395 13.7231 29.4355 13.6913 29.4394 13.66C29.4434 13.6286 29.4552 13.5987 29.4737 13.5728C30.2035 12.5676 31.0667 11.6958 32.0633 10.9575C32.3649 10.7342 32.6719 10.7397 32.9841 10.9741C33.0071 10.9917 33.0193 11.0145 33.0206 11.0425C33.0661 11.9566 32.0998 12.5494 31.5031 13.1636C31.3727 13.2978 31.2403 13.4303 31.1059 13.5611C30.9567 13.7057 30.7492 13.7369 30.6208 13.9449C30.6037 13.9729 30.5813 13.9957 30.5536 14.0133C30.4825 14.0608 30.4163 14.1145 30.355 14.1744C30.2246 14.3024 30.2246 14.5133 29.9905 14.5856C29.9588 14.5953 29.9279 14.5931 29.8976 14.5787Z" fill="url(#paint7_linear_68_124)"/>
<path d="M113.814 33.6887C113.392 33.4485 112.79 32.2678 112.577 31.8186C110.726 27.9268 110.359 23.4462 112.319 19.534C113.6 16.9763 115.617 14.9001 118.117 13.0738C118.141 13.0563 118.161 13.0598 118.178 13.0846C121.178 17.6296 121.925 23.2392 119.074 28.0909C117.74 30.3615 115.916 32.0783 113.849 33.6858C113.844 33.6898 113.838 33.6922 113.832 33.6927C113.826 33.6932 113.819 33.6918 113.814 33.6887Z" fill="url(#paint8_linear_68_124)"/>
<path d="M19.0161 23.747C18.8257 23.8532 18.5633 23.8411 18.2287 23.7109C18.0218 23.6295 17.7811 23.5953 17.5064 23.6084C16.9611 23.6347 16.3959 24.0361 16.0165 24.3926C14.856 25.4844 13.5341 26.7797 12.0507 28.2784C11.9332 28.3966 11.7682 28.4884 11.6348 28.5919C11.615 28.6069 11.5989 28.6248 11.5864 28.6456C11.5475 28.7094 11.4738 28.7237 11.3651 28.6886C8.56214 24.3906 8.57993 19.2694 10.9146 14.7673C11.2564 14.1081 11.5034 13.6393 11.9124 13.1403C11.9238 13.1265 11.9378 13.1151 11.9537 13.1067C11.9696 13.0983 11.9869 13.093 12.0048 13.0913C12.0228 13.0896 12.0408 13.0914 12.058 13.0966C12.0752 13.1018 12.0912 13.1104 12.1051 13.1217C12.6748 13.5931 13.2228 14.0573 13.7491 14.5143C16.5649 16.9597 18.4717 19.9696 19.0161 23.747Z" fill="url(#paint9_linear_68_124)"/>
<path d="M28.4225 13.6226L28.4976 15.0319C28.4983 15.0462 28.502 15.0602 28.5085 15.0731C28.5149 15.0859 28.524 15.0973 28.5352 15.1065C28.5463 15.1156 28.5593 15.1224 28.5732 15.1264C28.5872 15.1304 28.6018 15.1314 28.6162 15.1295L29.6279 14.9967C29.3078 15.1054 28.943 15.1663 28.5334 15.1794C28.4352 15.182 28.3512 15.2308 28.2814 15.3259C27.5035 16.3858 26.728 17.4473 25.9547 18.5105C25.6023 18.9956 25.2776 19.4995 24.9805 20.0223C23.297 22.9804 21.731 25.8574 20.5454 29.2628C18.989 33.7343 18.0738 38.2152 17.7998 42.7056C17.6625 44.9557 17.6724 47.7028 17.9095 50.2342C18.3778 55.2538 19.4784 59.752 21.3912 64.4241C24.0825 70.9975 28.3387 77.0153 33.5306 81.7322C34.8848 82.9627 36.5908 84.2863 38.6484 85.703C41.1336 87.414 43.7633 88.8692 46.5375 90.0684C46.9179 90.2325 47.65 90.3643 47.4277 90.9542C47.2874 91.3266 47.1715 91.7019 47.08 92.0802C47.0775 92.0907 47.0727 92.1005 47.066 92.109C47.0593 92.1175 47.0509 92.1245 47.0412 92.1295C47.0316 92.1345 47.021 92.1374 47.0101 92.138C46.9992 92.1386 46.9883 92.1368 46.9782 92.1329C42.4226 90.3672 38.0458 87.6631 34.2598 84.6298C31.7196 82.5945 29.3909 80.1443 27.3053 77.6598C24.0795 73.8189 21.4771 69.2445 19.6454 64.6457C17.6111 59.5362 16.5134 54.1151 16.2704 48.4597C16.2421 47.8119 16.2368 47.1612 16.2546 46.5075C16.3939 41.2456 17.2218 35.846 19.0308 30.9123C19.2515 30.3107 19.708 29.1674 20.4002 27.4825C20.6617 26.8457 20.9337 26.2536 21.2163 25.7061C22.1351 23.9277 23.0974 22.1405 24.2129 20.4745C25.5368 18.4978 26.7066 16.8894 28.2389 15.0846C28.2521 15.0697 28.2686 15.0619 28.2883 15.0612C28.2969 15.0612 28.3055 15.0612 28.314 15.0612C28.3232 15.0612 28.3282 15.057 28.3288 15.0485L28.4225 13.6226Z" fill="url(#paint10_linear_68_124)"/>
<path d="M28.6626 22.1386C28.5315 21.8664 28.5901 21.6259 28.8385 21.4169C29.3236 21.0096 29.7454 20.5536 30.192 20.0751C30.2928 19.9676 30.2882 19.8644 30.1782 19.7655C29.9542 19.5636 29.7622 19.3358 29.6022 19.0819C29.5829 19.0514 29.5578 19.0249 29.5282 19.0041C29.4985 18.9833 29.465 18.9684 29.4296 18.9604C29.3941 18.9524 29.3574 18.9515 29.3216 18.9576C29.2858 18.9636 29.2515 18.9767 29.2208 18.9959C29.0845 19.0799 28.934 19.16 28.7693 19.2362C28.5885 19.3192 28.297 19.3866 28.0817 19.5584C27.6618 19.8924 27.0976 19.9315 26.8635 19.3934C27.3957 18.5477 28.0471 17.725 28.8177 16.9255L31.1079 18.9744C31.1261 18.9908 31.1499 18.9999 31.1746 19.0001C31.1994 19.0003 31.2234 18.9915 31.2422 18.9754C31.7086 18.5744 32.1449 18.13 32.5513 17.6424C32.7618 17.3894 32.5553 17.2937 32.4051 17.116C31.9559 16.5828 31.4382 16.1277 30.852 15.7507C30.825 15.7331 30.8082 15.7087 30.8016 15.6775C30.7805 15.5811 30.7894 15.4769 30.8283 15.3649C31.7412 14.8233 32.4934 14.4557 33.0849 14.2624C35.7455 13.3932 38.8004 13.6002 41.4334 14.6491C41.5124 14.681 41.5342 14.735 41.4986 14.8112C39.8101 18.4402 36.8382 21.4618 32.7825 22.165C31.5403 22.3805 30.167 22.3717 28.6626 22.1386Z" fill="url(#paint11_linear_68_124)"/>
<path d="M99.2075 22.3065C94.2241 22.2948 90.447 19.0477 88.5263 14.7155C88.5092 14.6771 88.5207 14.6507 88.5609 14.6364C90.7128 13.8707 93.0632 13.5348 95.3287 13.8366C96.0262 13.9293 96.863 14.1989 97.5368 14.4655C100.669 15.7058 102.946 18.281 104.264 21.245C104.269 21.2567 104.272 21.2694 104.272 21.2821C104.272 21.2949 104.27 21.3075 104.265 21.3193C104.26 21.331 104.253 21.3416 104.244 21.3505C104.235 21.3594 104.224 21.3663 104.213 21.371C102.622 22.0194 100.924 22.3105 99.2075 22.3065Z" fill="url(#paint12_linear_68_124)"/>
<path d="M30.8283 15.3649C30.7894 15.4769 30.7805 15.5811 30.8016 15.6775C30.8082 15.7087 30.825 15.7331 30.852 15.7507C31.4382 16.1277 31.9559 16.5828 32.4051 17.116C32.4342 17.1504 32.4657 17.1817 32.4956 17.2118C32.6199 17.3366 32.721 17.4385 32.5513 17.6424C32.1449 18.13 31.7086 18.5744 31.2422 18.9754C31.2234 18.9915 31.1994 19.0003 31.1746 19.0001C31.1499 18.9999 31.1261 18.9908 31.1079 18.9744L28.8177 16.9255C29.3684 16.3324 30.0385 15.8122 30.8283 15.3649Z" fill="url(#paint13_linear_68_124)"/>
<path d="M28.6626 22.1386C27.7293 21.9784 26.8048 21.7255 25.8887 21.3798C25.7734 21.3362 25.747 21.2619 25.8096 21.1571L26.8635 19.3934C27.0976 19.9315 27.6618 19.8924 28.0817 19.5584C28.2329 19.4378 28.4219 19.3686 28.5835 19.3094C28.6521 19.2842 28.7154 19.2609 28.7693 19.2362C28.934 19.16 29.0845 19.0799 29.2208 18.9959C29.2515 18.9767 29.2858 18.9636 29.3216 18.9576C29.3574 18.9515 29.3941 18.9524 29.4296 18.9604C29.465 18.9684 29.4985 18.9833 29.5282 19.0041C29.5578 19.0249 29.5829 19.0514 29.6022 19.0819C29.7622 19.3358 29.9542 19.5636 30.1782 19.7655C30.2882 19.8644 30.2928 19.9676 30.192 20.0751L30.1479 20.1227C29.7176 20.5839 29.3074 21.0232 28.8385 21.4169C28.5901 21.6259 28.5315 21.8664 28.6626 22.1386Z" fill="url(#paint14_linear_68_124)"/>
<path fill-rule="evenodd" clip-rule="evenodd" d="M18.3294 29.6544C18.961 27.7214 19.19 25.7523 19.0161 23.747C18.8257 23.8532 18.5633 23.8411 18.2287 23.7109C18.0218 23.6295 17.7811 23.5953 17.5064 23.6084C16.9611 23.6347 16.3959 24.0361 16.0165 24.3926C14.856 25.4844 13.5341 26.7797 12.0507 28.2784C11.9757 28.3538 11.8813 28.4184 11.7882 28.4823C11.7354 28.5185 11.6831 28.5544 11.6348 28.5919C11.615 28.6069 11.5989 28.6248 11.5864 28.6456C11.5475 28.7094 11.4738 28.7237 11.3651 28.6886C12.605 30.6271 14.3794 32.2482 16.1805 33.6477C16.2799 33.7252 16.3646 33.7118 16.4344 33.6076C16.8467 32.993 17.1991 32.3697 17.4915 31.7375C17.813 31.0662 18.0922 30.3719 18.3294 29.6544Z" fill="url(#paint15_linear_68_124)"/>
<path d="M20.3999 34.4486C20.2794 34.4401 20.1611 34.4284 20.0452 34.4134C20.0142 34.4095 20.0011 34.3923 20.0057 34.3617C20.6923 29.9494 23.2987 26.1192 27.718 24.7744C29.8224 24.1338 31.7401 24.1025 33.8336 24.2276C33.8876 24.2308 33.9104 24.2588 33.9018 24.3115C32.7389 31.3362 27.5095 34.9164 20.3999 34.4486Z" fill="url(#paint16_linear_68_124)"/>
<path d="M96.2877 24.9199C97.5454 30.6447 101.447 34.1292 107.431 34.4505C107.928 34.4775 108.499 34.4653 109.071 34.453C109.345 34.4472 109.62 34.4413 109.886 34.4397C109.971 34.4391 110.022 34.3981 110.042 34.3167C110.051 34.2737 110.048 34.2053 110.031 34.1116C109.003 28.5274 105.253 24.5195 99.224 24.1923C98.3888 24.1468 97.4169 24.1494 96.3084 24.2001C96.2768 24.2021 96.26 24.2187 96.258 24.25C96.2402 24.5254 96.2501 24.7487 96.2877 24.9199Z" fill="url(#paint17_linear_68_124)"/>
<path d="M9.74638 30.6037C10.8351 31.4904 11.7573 32.4745 12.5121 33.5559C12.5864 33.6727 12.6617 33.79 12.7374 33.9073C13.1106 34.4856 13.4884 35.0712 13.7487 35.6654C15.4076 39.4467 15.2702 43.6051 13.9444 47.4763C13.9396 47.4902 13.9318 47.5029 13.9215 47.5135C13.9112 47.524 13.8987 47.5322 13.8848 47.5375C13.8709 47.5427 13.856 47.5448 13.8412 47.5437C13.8264 47.5426 13.812 47.5382 13.7991 47.531C13.4169 47.3207 12.9939 47.1114 12.5852 46.9092C12.1624 46.7 11.755 46.4984 11.424 46.3112C7.1035 43.8727 3.853 40.145 3.3432 35.1536C3.0771 32.5416 3.38469 30.0187 4.26598 27.5851C4.27427 27.5623 4.28718 27.5414 4.30392 27.5237C4.32066 27.506 4.34087 27.492 4.36329 27.4823C4.38571 27.4727 4.40987 27.4678 4.43426 27.4678C4.45865 27.4678 4.48275 27.4728 4.50508 27.4825C6.42639 28.2976 8.17349 29.338 9.74638 30.6037Z" fill="url(#paint18_linear_68_124)"/>
<path d="M115.464 38.2484C116.642 33.0676 120.818 29.38 125.66 27.4864C125.674 27.4809 125.689 27.4783 125.704 27.4786C125.719 27.479 125.734 27.4823 125.748 27.4884C125.751 27.49 125.755 27.4918 125.759 27.4939C125.763 27.4965 125.767 27.4995 125.772 27.5027C125.774 27.5049 125.777 27.5073 125.78 27.5097L125.784 27.5141C125.794 27.525 125.802 27.5378 125.807 27.5518C127.574 32.3644 127.179 38.1254 123.783 42.1724C121.754 44.5914 119.144 46.234 116.292 47.4323C116.28 47.4373 116.267 47.4399 116.253 47.4398C116.24 47.4397 116.227 47.437 116.215 47.4318C116.203 47.4266 116.192 47.419 116.183 47.4096C116.173 47.4001 116.166 47.3889 116.162 47.3766C115.07 44.5084 114.782 41.2436 115.464 38.2484Z" fill="url(#paint19_linear_68_124)"/>
<path d="M19.4317 46.239C19.4304 46.3711 19.4387 46.4779 19.4564 46.5593C19.4605 46.5784 19.4708 46.5957 19.4857 46.6085C19.5007 46.6214 19.5195 46.6291 19.5394 46.6306C19.633 46.6358 19.7742 46.6267 19.9633 46.6032C22.7188 46.2556 25.2352 45.5212 27.4177 43.8024C30.1851 41.6216 31.5287 38.393 31.7777 34.9593C31.804 34.5947 31.7965 34.2305 31.755 33.8665C31.7267 33.6172 31.5692 33.512 31.2827 33.5511C30.0299 33.7236 28.8723 33.973 27.8099 34.2992C22.1942 36.0228 19.4683 40.5972 19.4317 46.239Z" fill="url(#paint20_linear_68_124)"/>
<path d="M110.19 46.606C103.205 46.0416 98.5398 41.4477 98.2938 34.4397C98.2846 34.1747 98.2941 33.9178 98.3224 33.6691C98.3265 33.6345 98.3432 33.6025 98.3694 33.5792C98.3955 33.5558 98.4294 33.5426 98.4647 33.5422C98.7611 33.5389 99.0565 33.562 99.3509 33.6115C101.23 33.9279 103.258 34.5178 104.917 35.4582C108.286 37.3675 110.188 40.7748 110.595 44.5747C110.627 44.8671 110.654 45.5103 110.677 46.5045C110.678 46.5228 110.672 46.5407 110.66 46.5553C110.649 46.5698 110.633 46.5801 110.615 46.5846C110.504 46.6126 110.363 46.6197 110.19 46.606Z" fill="url(#paint21_linear_68_124)"/>
<path d="M1.65107 51.3495C4.29691 57.2354 10.3741 59.8204 16.5381 59.9894C16.6468 59.9926 16.7002 59.9406 16.6982 59.8331C16.6172 54.3642 14.0296 48.9431 8.99975 46.2976C6.19089 44.82 3.22296 44.2477 0.0623754 44.1041C0.0539525 44.1038 0.0455616 44.1053 0.0377442 44.1084C0.0299268 44.1115 0.0228569 44.1162 0.0169912 44.1222C0.0111255 44.1282 0.006594 44.1353 0.00369002 44.1431C0.000786048 44.151 -0.000425629 44.1593 0.000132189 44.1676C0.0801596 45.2282 0.170066 46.3102 0.371617 47.3113C0.661428 48.7514 1.08791 50.0975 1.65107 51.3495Z" fill="url(#paint22_linear_68_124)"/>
<path d="M129.943 44.1647C129.978 44.1692 129.996 44.1888 129.996 44.2233C130.025 45.4212 129.894 46.6137 129.605 47.8005C129.3 49.0525 128.916 50.3319 128.367 51.4637C126.763 54.7724 124.073 57.3155 120.571 58.6231C118.271 59.4819 115.896 59.9295 113.443 59.966C113.435 59.9661 113.427 59.9646 113.42 59.9616L113.415 59.9593L113.412 59.9574C113.409 59.9561 113.407 59.9548 113.406 59.9533L113.403 59.9509L113.4 59.9485L113.397 59.9455C113.396 59.9435 113.394 59.9412 113.392 59.9389C113.39 59.9357 113.389 59.9323 113.387 59.9287C113.384 59.9213 113.383 59.9133 113.383 59.9054C113.525 53.4618 116.71 47.7527 122.981 45.404C124.841 44.7073 126.853 44.2978 129.017 44.1754C129.085 44.1715 129.15 44.1668 129.213 44.1622C129.451 44.1449 129.667 44.1292 129.943 44.1647Z" fill="url(#paint23_linear_68_124)"/>
<path d="M99.2655 49.6873C100.087 53.6561 102.901 56.5068 106.66 57.9365C107.558 58.279 108.34 58.5638 109.005 58.7911C109.313 58.8965 109.424 58.7744 109.472 58.4873C110.686 51.1805 106.324 45.7848 99.2527 44.3092C99.2184 44.302 99.1983 44.3157 99.1924 44.3502C99.0436 45.1497 98.9576 45.9463 98.9346 46.7399C98.9069 47.694 99.0758 48.7683 99.2655 49.6873Z" fill="url(#paint24_linear_68_124)"/>
<path d="M30.8345 44.3746C30.87 44.3854 30.9015 44.4063 30.925 44.4348C30.9486 44.4633 30.9631 44.4981 30.9669 44.5348C31.2534 47.2468 31.1339 49.9324 29.9009 52.3495C28.078 55.9189 24.5993 57.877 20.7866 58.7842C20.7089 58.8031 20.6621 58.7735 20.6463 58.6954C19.7561 54.2245 21.1947 49.5056 25.0291 46.8005C26.6645 45.6461 28.4745 44.8359 30.4591 44.3697C30.5941 44.3378 30.7192 44.3395 30.8345 44.3746Z" fill="url(#paint25_linear_68_124)"/>
<path d="M95.7229 59.1963C95.9966 64.0441 99.1078 67.72 103.4 69.8129C103.796 70.0062 104.195 70.199 104.596 70.391C104.634 70.4099 104.663 70.4008 104.683 70.3637C104.753 70.2341 104.826 70.0453 104.903 69.7972C105.559 67.6859 105.897 65.4993 105.568 63.3556C104.833 58.5742 101.388 55.2089 97.0498 53.3514C97.0386 53.3467 97.0276 53.3418 97.0167 53.3368C96.9994 53.3289 96.9824 53.3208 96.9657 53.3128C96.7998 53.2339 96.6621 53.1684 96.5696 53.4393C95.8991 55.3932 95.6169 57.3122 95.7229 59.1963Z" fill="url(#paint26_linear_68_124)"/>
<path d="M25.4959 70.4516C25.4511 70.4165 25.4202 70.3787 25.4031 70.3383C24.7856 68.9067 24.5109 67.4662 24.4161 65.8988C24.0515 59.8859 27.8553 55.4551 33.2428 53.2724C33.335 53.2346 33.3982 53.2623 33.4325 53.3554C34.5291 56.3545 34.7959 59.9425 33.5214 62.9524C32.4 65.6029 30.4665 67.5785 28.0291 69.0864C27.5924 69.3563 27.0643 69.6321 26.5299 69.9113C26.1867 70.0905 25.8407 70.2712 25.5147 70.4526C25.5118 70.4543 25.5085 70.4551 25.5052 70.455C25.5035 70.4549 25.5019 70.4545 25.5003 70.454C25.4988 70.4534 25.4973 70.4526 25.4959 70.4516Z" fill="url(#paint27_linear_68_124)"/>
<path d="M1.29571 62.3274C2.76881 66.8617 5.76934 70.7954 10.3141 72.6715C13.8314 74.1236 17.8683 74.1627 21.6029 73.4225C21.6209 73.4188 21.638 73.4116 21.6531 73.4012C21.6682 73.3908 21.681 73.3774 21.6907 73.362C21.7004 73.3465 21.7068 73.3293 21.7096 73.3113C21.7123 73.2934 21.7113 73.275 21.7066 73.2574C20.0429 66.9701 15.5959 61.927 8.88942 60.8439C7.11104 60.5559 5.32771 60.4943 3.53351 60.715C2.72073 60.8153 1.92078 60.9094 1.13368 60.9973C1.11534 60.9993 1.0976 61.005 1.08154 61.014C1.06548 61.023 1.05144 61.0351 1.04026 61.0496C1.02908 61.0641 1.021 61.0807 1.01651 61.0984C1.01202 61.1161 1.01121 61.1345 1.01413 61.1526C1.07736 61.5523 1.17122 61.9439 1.29571 62.3274Z" fill="url(#paint28_linear_68_124)"/>
<path d="M110.108 73.6541C109.553 73.5689 108.982 73.4813 108.463 73.4839C108.451 73.4841 108.439 73.4815 108.428 73.4763C108.416 73.4712 108.407 73.4637 108.399 73.4543C108.396 73.4511 108.394 73.4478 108.392 73.4443C108.388 73.4375 108.385 73.43 108.383 73.4222C108.381 73.4163 108.38 73.4102 108.38 73.4041C108.38 73.3982 108.381 73.3922 108.382 73.3863C108.878 71.0659 109.926 68.8949 111.303 66.9662C114.227 62.8723 118.508 60.8078 123.53 60.591C125.106 60.5226 126.65 60.7169 128.297 60.9338C128.609 60.9748 128.874 61.0542 129.093 61.172C129.126 61.1896 129.137 61.2163 129.126 61.2521C128.546 63.0588 128.083 64.3255 127.216 65.8997C123.883 71.9527 117.682 74.5455 110.909 73.7672C110.652 73.7375 110.381 73.696 110.108 73.6541Z" fill="url(#paint29_linear_68_124)"/>
<path d="M91.1048 77.3395C92.2241 78.8015 93.6459 80.2546 95.2049 81.2537C95.2419 81.2772 95.2868 81.2853 95.3297 81.2761C95.3727 81.267 95.4103 81.2413 95.4341 81.2049C98.2272 76.9127 99.0877 71.2876 96.3757 66.7249C95.0814 64.5478 93.3728 62.6981 91.25 61.1759C91.1545 61.1076 91.0748 61.1225 91.0109 61.2208C87.7377 66.2815 87.3188 72.396 91.1048 77.3395Z" fill="url(#paint30_linear_68_124)"/>
<path d="M38.9659 61.1838C40.5862 63.3342 41.5159 66.3245 41.6621 68.8783C41.9595 74.0553 38.9273 78.3708 34.8647 81.2781C34.847 81.2908 34.8268 81.2997 34.8054 81.3044C34.7841 81.3091 34.762 81.3093 34.7405 81.3052C34.719 81.3011 34.6986 81.2927 34.6805 81.2805C34.6625 81.2682 34.6472 81.2525 34.6355 81.2342C33.3768 79.2693 32.4244 76.9186 32.126 74.5982C31.4107 69.0219 34.4606 64.3323 38.8364 61.1642C38.8563 61.1499 38.881 61.144 38.9052 61.1476C38.9295 61.1513 38.9513 61.1643 38.9659 61.1838Z" fill="url(#paint31_linear_68_124)"/>
<path d="M45.4993 88.04C45.5876 88.1383 45.6762 88.2256 45.7651 88.3018C45.7921 88.3251 45.8271 88.3374 45.863 88.3362C45.899 88.3349 45.9332 88.3201 45.9587 88.2949C49.1934 85.0683 51.4688 80.7166 50.7989 76.0426C50.3711 73.0571 48.8605 69.852 46.6642 67.7835C46.6411 67.7614 46.6184 67.7617 46.596 67.7845C45.249 69.1622 44.1514 70.6212 43.303 72.1616C40.3064 77.5993 41.4663 83.5331 45.4993 88.04Z" fill="url(#paint32_linear_68_124)"/>
<path d="M84.1516 88.3262C80.4357 84.7236 78.1476 79.574 79.5989 74.3941C80.2905 71.9266 81.538 69.7312 83.3414 67.808C83.4047 67.7403 83.4672 67.7413 83.5292 67.8109C85.8658 70.4331 87.9099 73.3287 88.3753 76.8884C88.9295 81.1297 87.2252 85.2216 84.3107 88.3223C84.3006 88.3331 84.2885 88.3418 84.2749 88.3479C84.2614 88.3539 84.2468 88.3572 84.232 88.3576C84.2171 88.358 84.2024 88.3554 84.1885 88.35C84.1825 88.3476 84.1768 88.3448 84.1713 88.3415C84.1642 88.3371 84.1576 88.332 84.1516 88.3262Z" fill="url(#paint33_linear_68_124)"/>
<path d="M18.7338 87.6667C18.8195 87.678 18.9063 87.6894 18.9945 87.7012C23.4424 88.3008 28.1947 86.7402 31.9076 84.3456C31.9121 84.3426 31.9164 84.3394 31.9205 84.3358C31.9246 84.3323 31.9285 84.3285 31.932 84.3245L31.9362 84.3195C31.9382 84.317 31.9401 84.3143 31.942 84.3115C31.951 84.298 31.9571 84.2828 31.96 84.2669C31.9629 84.251 31.9624 84.2347 31.9587 84.219C31.9549 84.2033 31.9479 84.1886 31.9382 84.1757C31.3164 83.3547 30.6439 82.5578 29.9207 81.785C26.6267 78.2654 21.9822 75.9743 17.0738 76.1784C13.4726 76.3288 9.92868 77.6179 6.83033 79.4754C6.73614 79.532 6.64755 79.6163 6.56456 79.7283C6.55557 79.7405 6.55 79.7548 6.54844 79.7697C6.54687 79.7847 6.54937 79.7997 6.55567 79.8133C6.59651 79.9051 6.64722 79.991 6.70782 80.0711C9.36256 83.5585 12.6585 86.1816 16.9681 87.3535C17.5458 87.5107 18.1097 87.5848 18.7338 87.6667Z" fill="url(#paint34_linear_68_124)"/>
<path d="M99.2134 84.9999C98.9783 84.868 98.4596 84.576 98.177 84.245C98.1657 84.2319 98.158 84.2161 98.1549 84.1991C98.1518 84.1821 98.1533 84.1646 98.1593 84.1483C98.2064 84.0183 98.2893 83.9286 98.3659 83.8458C98.3952 83.8141 98.4236 83.7834 98.4487 83.7518C98.9599 83.1085 99.3162 82.6713 99.5177 82.4402C103.032 78.4069 108.264 75.7339 113.747 76.231C117.34 76.5572 120.354 77.8629 123.467 79.571C123.487 79.5818 123.504 79.5967 123.518 79.6146C123.526 79.6257 123.533 79.6378 123.539 79.6506C123.54 79.6546 123.542 79.6587 123.543 79.6629C123.545 79.6669 123.546 79.671 123.547 79.6751C123.552 79.6971 123.553 79.7199 123.549 79.7422C123.545 79.7644 123.536 79.7856 123.523 79.8044C120.798 83.7625 116.693 86.7421 111.901 87.6035C107.549 88.3857 103.019 87.1308 99.2134 84.9999Z" fill="url(#paint35_linear_68_124)"/>
<path d="M17.4232 95.2531C19.6086 96.968 22.292 98.4769 24.9102 99.2444C28.9313 100.424 33.4899 100.273 37.3036 98.4104C40.1984 96.997 42.7385 95.0672 44.924 92.6212C45.0201 92.5138 45.0099 92.4171 44.8933 92.3311C40.7062 89.2549 35.9787 87.3183 30.7265 87.7832C27.3357 88.084 23.9558 89.5664 21.2764 91.626C19.824 92.7423 18.7451 93.7863 17.4173 95.173C17.4143 95.176 17.4118 95.1793 17.4096 95.1829C17.4079 95.1857 17.4065 95.1888 17.4053 95.1919C17.4027 95.199 17.4017 95.2065 17.4023 95.2141C17.4028 95.2216 17.405 95.229 17.4086 95.2357C17.4096 95.2376 17.4107 95.2394 17.4119 95.2411C17.4126 95.2421 17.4133 95.2431 17.4141 95.2441C17.4168 95.2474 17.4198 95.2505 17.4232 95.2531Z" fill="url(#paint36_linear_68_124)"/>
<path d="M90.1359 96.9504C88.3012 95.7433 86.5692 94.2345 85.1159 92.5938C85.1015 92.5774 85.0943 92.556 85.096 92.5342C85.0977 92.5124 85.108 92.492 85.1248 92.4776C89.0896 89.1142 94.9089 87.0643 100.132 87.8651C105.054 88.62 109.395 91.5088 112.629 95.1867C112.65 95.212 112.648 95.2352 112.623 95.256C109.772 97.5578 106.182 99.2942 102.508 99.8186C98.0507 100.454 93.8626 99.3997 90.1359 96.9504Z" fill="url(#paint37_linear_68_124)"/>
<defs>
<linearGradient id="paint0_linear_68_124" x1="28.3924" y1="129.759" x2="182.241" y2="-34.5819" gradientUnits="userSpaceOnUse">
<stop offset="0.0396862" stop-color="#9E00FF"/>
<stop offset="1" stop-color="#007AFF"/>
</linearGradient>
<linearGradient id="paint1_linear_68_124" x1="28.3924" y1="129.759" x2="182.241" y2="-34.5819" gradientUnits="userSpaceOnUse">
<stop offset="0.0396862" stop-color="#9E00FF"/>
<stop offset="1" stop-color="#007AFF"/>
</linearGradient>
<linearGradient id="paint2_linear_68_124" x1="28.3924" y1="129.759" x2="182.241" y2="-34.5819" gradientUnits="userSpaceOnUse">
<stop offset="0.0396862" stop-color="#9E00FF"/>
<stop offset="1" stop-color="#007AFF"/>
</linearGradient>
<linearGradient id="paint3_linear_68_124" x1="28.3924" y1="129.759" x2="182.241" y2="-34.5819" gradientUnits="userSpaceOnUse">
<stop offset="0.0396862" stop-color="#9E00FF"/>
<stop offset="1" stop-color="#007AFF"/>
</linearGradient>
<linearGradient id="paint4_linear_68_124" x1="28.3924" y1="129.759" x2="182.241" y2="-34.5819" gradientUnits="userSpaceOnUse">
<stop offset="0.0396862" stop-color="#9E00FF"/>
<stop offset="1" stop-color="#007AFF"/>
</linearGradient>
<linearGradient id="paint5_linear_68_124" x1="28.3924" y1="129.759" x2="182.241" y2="-34.5819" gradientUnits="userSpaceOnUse">
<stop offset="0.0396862" stop-color="#9E00FF"/>
<stop offset="1" stop-color="#007AFF"/>
</linearGradient>
<linearGradient id="paint6_linear_68_124" x1="28.3924" y1="129.759" x2="182.241" y2="-34.5819" gradientUnits="userSpaceOnUse">
<stop offset="0.0396862" stop-color="#9E00FF"/>
<stop offset="1" stop-color="#007AFF"/>
</linearGradient>
<linearGradient id="paint7_linear_68_124" x1="28.3924" y1="129.759" x2="182.241" y2="-34.5819" gradientUnits="userSpaceOnUse">
<stop offset="0.0396862" stop-color="#9E00FF"/>
<stop offset="1" stop-color="#007AFF"/>
</linearGradient>
<linearGradient id="paint8_linear_68_124" x1="28.3924" y1="129.759" x2="182.241" y2="-34.5819" gradientUnits="userSpaceOnUse">
<stop offset="0.0396862" stop-color="#9E00FF"/>
<stop offset="1" stop-color="#007AFF"/>
</linearGradient>
<linearGradient id="paint9_linear_68_124" x1="28.3924" y1="129.759" x2="182.241" y2="-34.5819" gradientUnits="userSpaceOnUse">
<stop offset="0.0396862" stop-color="#9E00FF"/>
<stop offset="1" stop-color="#007AFF"/>
</linearGradient>
<linearGradient id="paint10_linear_68_124" x1="28.3924" y1="129.759" x2="182.241" y2="-34.5819" gradientUnits="userSpaceOnUse">
<stop offset="0.0396862" stop-color="#9E00FF"/>
<stop offset="1" stop-color="#007AFF"/>
</linearGradient>
<linearGradient id="paint11_linear_68_124" x1="28.3924" y1="129.759" x2="182.241" y2="-34.5819" gradientUnits="userSpaceOnUse">
<stop offset="0.0396862" stop-color="#9E00FF"/>
<stop offset="1" stop-color="#007AFF"/>
</linearGradient>
<linearGradient id="paint12_linear_68_124" x1="28.3924" y1="129.759" x2="182.241" y2="-34.5819" gradientUnits="userSpaceOnUse">
<stop offset="0.0396862" stop-color="#9E00FF"/>
<stop offset="1" stop-color="#007AFF"/>
</linearGradient>
<linearGradient id="paint13_linear_68_124" x1="28.3924" y1="129.759" x2="182.241" y2="-34.5819" gradientUnits="userSpaceOnUse">
<stop offset="0.0396862" stop-color="#9E00FF"/>
<stop offset="1" stop-color="#007AFF"/>
</linearGradient>
<linearGradient id="paint14_linear_68_124" x1="28.3924" y1="129.759" x2="182.241" y2="-34.5819" gradientUnits="userSpaceOnUse">
<stop offset="0.0396862" stop-color="#9E00FF"/>
<stop offset="1" stop-color="#007AFF"/>
</linearGradient>
<linearGradient id="paint15_linear_68_124" x1="28.3924" y1="129.759" x2="182.241" y2="-34.5819" gradientUnits="userSpaceOnUse">
<stop offset="0.0396862" stop-color="#9E00FF"/>
<stop offset="1" stop-color="#007AFF"/>
</linearGradient>
<linearGradient id="paint16_linear_68_124" x1="28.3924" y1="129.759" x2="182.241" y2="-34.5819" gradientUnits="userSpaceOnUse">
<stop offset="0.0396862" stop-color="#9E00FF"/>
<stop offset="1" stop-color="#007AFF"/>
</linearGradient>
<linearGradient id="paint17_linear_68_124" x1="28.3924" y1="129.759" x2="182.241" y2="-34.5819" gradientUnits="userSpaceOnUse">
<stop offset="0.0396862" stop-color="#9E00FF"/>
<stop offset="1" stop-color="#007AFF"/>
</linearGradient>
<linearGradient id="paint18_linear_68_124" x1="28.3924" y1="129.759" x2="182.241" y2="-34.5819" gradientUnits="userSpaceOnUse">
<stop offset="0.0396862" stop-color="#9E00FF"/>
<stop offset="1" stop-color="#007AFF"/>
</linearGradient>
<linearGradient id="paint19_linear_68_124" x1="28.3924" y1="129.759" x2="182.241" y2="-34.5819" gradientUnits="userSpaceOnUse">
<stop offset="0.0396862" stop-color="#9E00FF"/>
<stop offset="1" stop-color="#007AFF"/>
</linearGradient>
<linearGradient id="paint20_linear_68_124" x1="28.3924" y1="129.759" x2="182.241" y2="-34.5819" gradientUnits="userSpaceOnUse">
<stop offset="0.0396862" stop-color="#9E00FF"/>
<stop offset="1" stop-color="#007AFF"/>
</linearGradient>
<linearGradient id="paint21_linear_68_124" x1="28.3924" y1="129.759" x2="182.241" y2="-34.5819" gradientUnits="userSpaceOnUse">
<stop offset="0.0396862" stop-color="#9E00FF"/>
<stop offset="1" stop-color="#007AFF"/>
</linearGradient>
<linearGradient id="paint22_linear_68_124" x1="28.3924" y1="129.759" x2="182.241" y2="-34.5819" gradientUnits="userSpaceOnUse">
<stop offset="0.0396862" stop-color="#9E00FF"/>
<stop offset="1" stop-color="#007AFF"/>
</linearGradient>
<linearGradient id="paint23_linear_68_124" x1="28.3924" y1="129.759" x2="182.241" y2="-34.5819" gradientUnits="userSpaceOnUse">
<stop offset="0.0396862" stop-color="#9E00FF"/>
<stop offset="1" stop-color="#007AFF"/>
</linearGradient>
<linearGradient id="paint24_linear_68_124" x1="28.3924" y1="129.759" x2="182.241" y2="-34.5819" gradientUnits="userSpaceOnUse">
<stop offset="0.0396862" stop-color="#9E00FF"/>
<stop offset="1" stop-color="#007AFF"/>
</linearGradient>
<linearGradient id="paint25_linear_68_124" x1="28.3924" y1="129.759" x2="182.241" y2="-34.5819" gradientUnits="userSpaceOnUse">
<stop offset="0.0396862" stop-color="#9E00FF"/>
<stop offset="1" stop-color="#007AFF"/>
</linearGradient>
<linearGradient id="paint26_linear_68_124" x1="28.3924" y1="129.759" x2="182.241" y2="-34.5819" gradientUnits="userSpaceOnUse">
<stop offset="0.0396862" stop-color="#9E00FF"/>
<stop offset="1" stop-color="#007AFF"/>
</linearGradient>
<linearGradient id="paint27_linear_68_124" x1="28.3924" y1="129.759" x2="182.241" y2="-34.5819" gradientUnits="userSpaceOnUse">
<stop offset="0.0396862" stop-color="#9E00FF"/>
<stop offset="1" stop-color="#007AFF"/>
</linearGradient>
<linearGradient id="paint28_linear_68_124" x1="28.3924" y1="129.759" x2="182.241" y2="-34.5819" gradientUnits="userSpaceOnUse">
<stop offset="0.0396862" stop-color="#9E00FF"/>
<stop offset="1" stop-color="#007AFF"/>
</linearGradient>
<linearGradient id="paint29_linear_68_124" x1="28.3924" y1="129.759" x2="182.241" y2="-34.5819" gradientUnits="userSpaceOnUse">
<stop offset="0.0396862" stop-color="#9E00FF"/>
<stop offset="1" stop-color="#007AFF"/>
</linearGradient>
<linearGradient id="paint30_linear_68_124" x1="28.3924" y1="129.759" x2="182.241" y2="-34.5819" gradientUnits="userSpaceOnUse">
<stop offset="0.0396862" stop-color="#9E00FF"/>
<stop offset="1" stop-color="#007AFF"/>
</linearGradient>
<linearGradient id="paint31_linear_68_124" x1="28.3924" y1="129.759" x2="182.241" y2="-34.5819" gradientUnits="userSpaceOnUse">
<stop offset="0.0396862" stop-color="#9E00FF"/>
<stop offset="1" stop-color="#007AFF"/>
</linearGradient>
<linearGradient id="paint32_linear_68_124" x1="28.3924" y1="129.759" x2="182.241" y2="-34.5819" gradientUnits="userSpaceOnUse">
<stop offset="0.0396862" stop-color="#9E00FF"/>
<stop offset="1" stop-color="#007AFF"/>
</linearGradient>
<linearGradient id="paint33_linear_68_124" x1="28.3924" y1="129.759" x2="182.241" y2="-34.5819" gradientUnits="userSpaceOnUse">
<stop offset="0.0396862" stop-color="#9E00FF"/>
<stop offset="1" stop-color="#007AFF"/>
</linearGradient>
<linearGradient id="paint34_linear_68_124" x1="28.3924" y1="129.759" x2="182.241" y2="-34.5819" gradientUnits="userSpaceOnUse">
<stop offset="0.0396862" stop-color="#9E00FF"/>
<stop offset="1" stop-color="#007AFF"/>
</linearGradient>
<linearGradient id="paint35_linear_68_124" x1="28.3924" y1="129.759" x2="182.241" y2="-34.5819" gradientUnits="userSpaceOnUse">
<stop offset="0.0396862" stop-color="#9E00FF"/>
<stop offset="1" stop-color="#007AFF"/>
</linearGradient>
<linearGradient id="paint36_linear_68_124" x1="28.3924" y1="129.759" x2="182.241" y2="-34.5819" gradientUnits="userSpaceOnUse">
<stop offset="0.0396862" stop-color="#9E00FF"/>
<stop offset="1" stop-color="#007AFF"/>
</linearGradient>
<linearGradient id="paint37_linear_68_124" x1="28.3924" y1="129.759" x2="182.241" y2="-34.5819" gradientUnits="userSpaceOnUse">
<stop offset="0.0396862" stop-color="#9E00FF"/>
<stop offset="1" stop-color="#007AFF"/>
</linearGradient>
</defs>
</svg>
